<svg xmlns="http://www.w3.org/2000/svg" width="150" viewBox="0 0 150 75" height="75" version="1.0"><path fill="#FFF" d="M-15 -7.5H165V82.5H-15z"/><path fill="#FFF" d="M-15 -7.5H165V82.5H-15z"/><path fill="#FCFCFC" d="M-15 -7.5H165V82.5H-15z"/><g fill="#545454"><g><g><path d="M 9.78125 -13.339844 C 8.257812 -13.339844 6.886719 -12.882812 6.132812 -11.980469 L 6.132812 -18.992188 L 1.621094 -18.992188 L 1.621094 0 L 5.875 0 L 5.972656 -1.25 C 6.675781 -0.210938 8.136719 0.332031 9.78125 0.332031 C 13.265625 0.332031 16.183594 -2.152344 16.183594 -6.503906 C 16.183594 -10.867188 13.265625 -13.339844 9.78125 -13.339844 Z M 8.71875 -3.363281 C 7.035156 -3.363281 5.75 -4.511719 5.75 -6.503906 C 5.75 -8.507812 7.035156 -9.644531 8.71875 -9.644531 C 10.386719 -9.644531 11.671875 -8.507812 11.671875 -6.503906 C 11.671875 -4.511719 10.386719 -3.363281 8.71875 -3.363281 Z M 8.71875 -3.363281" transform="translate(24.756 45.915)"/></g></g></g><g fill="#3376B5"><g><g><path d="M 3.917969 -14.355469 C 5.230469 -14.355469 6.34375 -15.441406 6.34375 -16.816406 C 6.34375 -18.152344 5.230469 -19.238281 3.917969 -19.238281 C 2.546875 -19.238281 1.433594 -18.152344 1.433594 -16.816406 C 1.433594 -15.441406 2.546875 -14.355469 3.917969 -14.355469 Z M 1.621094 0 L 6.15625 0 L 6.15625 -13.09375 L 1.621094 -13.09375 Z M 1.621094 0" transform="translate(45.409 45.915)"/></g></g></g><g fill="#545454"><g><g><path d="M 10.3125 -13.339844 C 8.542969 -13.339844 7.097656 -12.746094 6.132812 -11.746094 L 6.132812 -13.09375 L 1.621094 -13.09375 L 1.621094 0 L 6.132812 0 L 6.132812 -6.835938 C 6.15625 -9.210938 7.492188 -9.78125 8.839844 -9.78125 C 9.929688 -9.78125 10.867188 -9.296875 10.867188 -7.851562 L 10.867188 0 L 15.394531 0 L 15.394531 -8.816406 C 15.394531 -11.671875 13.722656 -13.339844 10.3125 -13.339844 Z M 10.3125 -13.339844" transform="translate(57.04 45.915)"/></g></g></g><g fill="#545454"><g><g><path d="M 13.117188 -2.808594 L 13.117188 -8.507812 C 13.117188 -12.761719 9.953125 -13.339844 7.320312 -13.339844 C 3.472656 -13.339844 1.445312 -12.078125 0.816406 -9.210938 L 4.785156 -8.554688 C 5.019531 -9.902344 5.847656 -10.335938 7.035156 -10.335938 C 7.800781 -10.335938 8.839844 -10.152344 8.839844 -9.25 C 8.839844 -8.765625 8.53125 -8.480469 7.515625 -8.234375 L 5.414062 -7.703125 C 2.78125 -7.035156 0.703125 -6.15625 0.703125 -3.386719 C 0.703125 -0.582031 2.832031 0.246094 4.835938 0.246094 C 6.332031 0.246094 8.097656 -0.210938 9.027344 -1.347656 L 9.296875 0 L 13.414062 0 L 13.414062 -0.382812 C 13.191406 -1.136719 13.117188 -1.816406 13.117188 -2.808594 Z M 6.207031 -2.460938 C 5.515625 -2.460938 4.984375 -2.832031 4.984375 -3.574219 C 4.984375 -4.304688 5.367188 -4.710938 6.132812 -4.957031 L 9.085938 -5.945312 C 9.085938 -3.621094 7.417969 -2.460938 6.207031 -2.460938 Z M 6.207031 -2.460938" transform="translate(77.67 45.915)"/></g></g></g><g fill="#545454"><g><g><path d="M 6.019531 -11.277344 L 5.875 -13.09375 L 1.621094 -13.09375 L 1.621094 0 L 6.183594 0 L 6.183594 -5.996094 C 6.183594 -8.65625 7.371094 -9.296875 10.273438 -9.296875 L 10.273438 -13.242188 C 8.445312 -13.242188 6.761719 -12.253906 6.019531 -11.277344 Z M 6.019531 -11.277344" transform="translate(96.05 45.915)"/></g></g></g><g fill="#545454"><g><g><path d="M 10.484375 -13.09375 L 7.457031 -5.453125 L 4.6875 -13.09375 L -0.199219 -13.09375 L 5.355469 -0.679688 L 2.125 6.230469 L 6.664062 6.230469 L 15.070312 -13.09375 Z M 10.484375 -13.09375" transform="translate(110.379 45.915)"/></g></g></g></svg>