<svg xmlns="http://www.w3.org/2000/svg" width="150" viewBox="0 0 150 75" height="75" version="1.0"><path fill="#FFF" d="M-15 -7.5H165V82.5H-15z"/><path fill="#FFF" d="M-15 -7.5H165V82.5H-15z"/><path fill="#FFF" d="M-15 -7.5H165V82.5H-15z"/><g fill="#545454"><g><g><path d="M 11.296875 -15.410156 C 9.539062 -15.410156 7.953125 -14.882812 7.082031 -13.839844 L 7.082031 -21.9375 L 1.871094 -21.9375 L 1.871094 0 L 6.785156 0 L 6.898438 -1.441406 C 7.710938 -0.242188 9.398438 0.386719 11.296875 0.386719 C 15.324219 0.386719 18.695312 -2.484375 18.695312 -7.511719 C 18.695312 -12.554688 15.324219 -15.410156 11.296875 -15.410156 Z M 10.070312 -3.882812 C 8.125 -3.882812 6.640625 -5.210938 6.640625 -7.511719 C 6.640625 -9.824219 8.125 -11.140625 10.070312 -11.140625 C 11.996094 -11.140625 13.480469 -9.824219 13.480469 -7.511719 C 13.480469 -5.210938 11.996094 -3.882812 10.070312 -3.882812 Z M 10.070312 -3.882812" transform="translate(16.965 47.22)"/></g></g></g><g fill="#3376B5"><g><g><path d="M 4.527344 -16.582031 C 6.042969 -16.582031 7.328125 -17.835938 7.328125 -19.421875 C 7.328125 -20.964844 6.042969 -22.222656 4.527344 -22.222656 C 2.941406 -22.222656 1.65625 -20.964844 1.65625 -19.421875 C 1.65625 -17.835938 2.941406 -16.582031 4.527344 -16.582031 Z M 1.871094 0 L 7.113281 0 L 7.113281 -15.125 L 1.871094 -15.125 Z M 1.871094 0" transform="translate(40.82 47.22)"/></g></g></g><g fill="#545454"><g><g><path d="M 11.910156 -15.410156 C 9.867188 -15.410156 8.199219 -14.722656 7.082031 -13.566406 L 7.082031 -15.125 L 1.871094 -15.125 L 1.871094 0 L 7.082031 0 L 7.082031 -7.898438 C 7.113281 -10.640625 8.65625 -11.296875 10.210938 -11.296875 C 11.46875 -11.296875 12.554688 -10.738281 12.554688 -9.070312 L 12.554688 0 L 17.78125 0 L 17.78125 -10.183594 C 17.78125 -13.480469 15.851562 -15.410156 11.910156 -15.410156 Z M 11.910156 -15.410156" transform="translate(54.255 47.22)"/></g></g></g><g fill="#545454"><g><g><path d="M 15.152344 -3.242188 L 15.152344 -9.824219 C 15.152344 -14.738281 11.496094 -15.410156 8.453125 -15.410156 C 4.011719 -15.410156 1.671875 -13.953125 0.941406 -10.640625 L 5.527344 -9.882812 C 5.796875 -11.4375 6.753906 -11.9375 8.125 -11.9375 C 9.011719 -11.9375 10.210938 -11.726562 10.210938 -10.683594 C 10.210938 -10.125 9.855469 -9.796875 8.683594 -9.511719 L 6.253906 -8.898438 C 3.214844 -8.125 0.8125 -7.113281 0.8125 -3.914062 C 0.8125 -0.671875 3.269531 0.285156 5.585938 0.285156 C 7.3125 0.285156 9.355469 -0.242188 10.425781 -1.558594 L 10.738281 0 L 15.496094 0 L 15.496094 -0.441406 C 15.238281 -1.3125 15.152344 -2.097656 15.152344 -3.242188 Z M 7.167969 -2.84375 C 6.371094 -2.84375 5.753906 -3.269531 5.753906 -4.128906 C 5.753906 -4.96875 6.199219 -5.441406 7.082031 -5.726562 L 10.496094 -6.871094 C 10.496094 -4.183594 8.570312 -2.84375 7.167969 -2.84375 Z M 7.167969 -2.84375" transform="translate(78.083 47.22)"/></g></g></g><g fill="#545454"><g><g><path d="M 6.953125 -13.023438 L 6.785156 -15.125 L 1.871094 -15.125 L 1.871094 0 L 7.140625 0 L 7.140625 -6.925781 C 7.140625 -9.996094 8.511719 -10.738281 11.867188 -10.738281 L 11.867188 -15.296875 C 9.753906 -15.296875 7.8125 -14.152344 6.953125 -13.023438 Z M 6.953125 -13.023438" transform="translate(99.314 47.22)"/></g></g></g><g fill="#545454"><g><g><path d="M 12.109375 -15.125 L 8.613281 -6.296875 L 5.414062 -15.125 L -0.226562 -15.125 L 6.183594 -0.785156 L 2.457031 7.199219 L 7.699219 7.199219 L 17.410156 -15.125 Z M 12.109375 -15.125" transform="translate(115.864 47.22)"/></g></g></g></svg>